<svg xmlns="http://www.w3.org/2000/svg" width="34.051" height="33.007" viewBox="0 0 34.051 33.007">
  <path id="Icon_ionic-ios-settings" data-name="Icon ionic-ios-settings" d="M35.74,21a4.253,4.253,0,0,1,2.811-3.962,16.55,16.55,0,0,0-2.1-4.907,4.561,4.561,0,0,1-1.782.37,4.459,4.459,0,0,1-3.095-1.237,4.153,4.153,0,0,1-.9-4.726A17.622,17.622,0,0,0,25.613,4.5a4.429,4.429,0,0,1-8.176,0,17.677,17.677,0,0,0-5.063,2.037,4.141,4.141,0,0,1-.9,4.726,4.487,4.487,0,0,1-4.877.868A16.913,16.913,0,0,0,4.5,17.046a4.2,4.2,0,0,1,.009,7.923,16.55,16.55,0,0,0,2.1,4.907,4.541,4.541,0,0,1,1.773-.361,4.459,4.459,0,0,1,3.095,1.237,4.154,4.154,0,0,1,.9,4.718,17.78,17.78,0,0,0,5.063,2.037,4.421,4.421,0,0,1,8.158,0,17.676,17.676,0,0,0,5.063-2.037,4.156,4.156,0,0,1,.9-4.718,4.428,4.428,0,0,1,3.095-1.237,4.509,4.509,0,0,1,1.773.361,16.646,16.646,0,0,0,2.1-4.907A4.272,4.272,0,0,1,35.74,21ZM21.605,27.865a6.985,6.985,0,0,1-7.094-6.875,6.985,6.985,0,0,1,7.094-6.875,7.213,7.213,0,0,1,6.54,4.206,6.317,6.317,0,0,1,.554,2.669A6.985,6.985,0,0,1,21.605,27.865Z" transform="translate(-4.5 -4.5)"/>
</svg>
